<mxfile host="app.diagrams.net" modified="2023-02-13T04:00:22.807Z" agent="5.0 (X11)" etag="gpdoQ9ZkXMiKXTyEuB3M" version="20.8.18" type="github">
  <diagram name="Page-1" id="RDvIF1LANBiaNH-AZSOc">
    <mxGraphModel dx="1144" dy="647" grid="1" gridSize="10" guides="1" tooltips="1" connect="1" arrows="1" fold="1" page="1" pageScale="1" pageWidth="850" pageHeight="1100" math="0" shadow="0">
      <root>
        <mxCell id="0" />
        <mxCell id="1" parent="0" />
        <mxCell id="URdUNzW6-drFFt7LhVcL-1" value="Admin" style="swimlane;horizontal=0;whiteSpace=wrap;html=1;" vertex="1" parent="1">
          <mxGeometry x="40" y="130" width="910" height="160" as="geometry" />
        </mxCell>
        <mxCell id="URdUNzW6-drFFt7LhVcL-2" value="choose a User Profile" style="shape=ellipse;html=1;fillColor=strokeColor;strokeWidth=2;verticalLabelPosition=bottom;verticalAlignment=top;perimeter=ellipsePerimeter;" vertex="1" parent="URdUNzW6-drFFt7LhVcL-1">
          <mxGeometry x="90" y="50" width="40" height="40" as="geometry" />
        </mxCell>
        <mxCell id="URdUNzW6-drFFt7LhVcL-3" value="" style="ellipse;html=1;shape=endState;fillColor=#000000;strokeColor=#ff0000;strokeWidth=2;fontFamily=Helvetica;fontSize=12;fontColor=default;" vertex="1" parent="URdUNzW6-drFFt7LhVcL-1">
          <mxGeometry x="860" y="70" width="30" height="30" as="geometry" />
        </mxCell>
        <mxCell id="URdUNzW6-drFFt7LhVcL-18" value="Click revert User status" style="rounded=1;whiteSpace=wrap;html=1;strokeWidth=2;fontFamily=Helvetica;fontSize=12;" vertex="1" parent="URdUNzW6-drFFt7LhVcL-1">
          <mxGeometry x="250" y="50" width="120" height="60" as="geometry" />
        </mxCell>
        <mxCell id="URdUNzW6-drFFt7LhVcL-19" value="Note only user have activating or deactivated status has button to click" style="text;html=1;align=center;verticalAlign=middle;resizable=0;points=[];autosize=1;strokeColor=none;fillColor=none;" vertex="1" parent="URdUNzW6-drFFt7LhVcL-1">
          <mxGeometry x="240" y="10" width="400" height="30" as="geometry" />
        </mxCell>
        <mxCell id="URdUNzW6-drFFt7LhVcL-20" value="Note: revert here mean activating -&amp;gt; deactivated and vice versa" style="text;html=1;align=center;verticalAlign=middle;resizable=0;points=[];autosize=1;strokeColor=none;fillColor=none;" vertex="1" parent="URdUNzW6-drFFt7LhVcL-1">
          <mxGeometry x="380" y="65" width="360" height="30" as="geometry" />
        </mxCell>
        <mxCell id="URdUNzW6-drFFt7LhVcL-4" value="ProfileController" style="swimlane;horizontal=0;whiteSpace=wrap;html=1;" vertex="1" parent="1">
          <mxGeometry x="40" y="300" width="910" height="150" as="geometry" />
        </mxCell>
        <mxCell id="URdUNzW6-drFFt7LhVcL-5" value="Update User profile with new status" style="rounded=1;whiteSpace=wrap;html=1;strokeWidth=2;fontFamily=Helvetica;fontSize=12;" vertex="1" parent="URdUNzW6-drFFt7LhVcL-4">
          <mxGeometry x="770" y="40" width="120" height="60" as="geometry" />
        </mxCell>
        <mxCell id="URdUNzW6-drFFt7LhVcL-7" value="Display User Profile" style="rounded=1;whiteSpace=wrap;html=1;strokeWidth=2;fontFamily=Helvetica;fontSize=12;" vertex="1" parent="URdUNzW6-drFFt7LhVcL-4">
          <mxGeometry x="50" y="20" width="120" height="60" as="geometry" />
        </mxCell>
        <mxCell id="URdUNzW6-drFFt7LhVcL-9" value="UserController" style="swimlane;horizontal=0;whiteSpace=wrap;html=1;" vertex="1" parent="1">
          <mxGeometry x="40" y="460" width="910" height="120" as="geometry" />
        </mxCell>
        <mxCell id="URdUNzW6-drFFt7LhVcL-11" value="revert user status" style="rounded=1;whiteSpace=wrap;html=1;strokeWidth=2;fontFamily=Helvetica;fontSize=12;" vertex="1" parent="URdUNzW6-drFFt7LhVcL-9">
          <mxGeometry x="430" y="20" width="120" height="60" as="geometry" />
        </mxCell>
        <mxCell id="URdUNzW6-drFFt7LhVcL-13" style="edgeStyle=orthogonalEdgeStyle;rounded=0;orthogonalLoop=1;jettySize=auto;html=1;entryX=0.5;entryY=1;entryDx=0;entryDy=0;dashed=1;strokeWidth=1;fontFamily=Helvetica;fontSize=12;fontColor=default;" edge="1" parent="1" source="URdUNzW6-drFFt7LhVcL-5" target="URdUNzW6-drFFt7LhVcL-3">
          <mxGeometry relative="1" as="geometry" />
        </mxCell>
        <mxCell id="URdUNzW6-drFFt7LhVcL-14" style="edgeStyle=orthogonalEdgeStyle;rounded=0;orthogonalLoop=1;jettySize=auto;html=1;entryX=0.5;entryY=0;entryDx=0;entryDy=0;dashed=1;strokeWidth=1;fontFamily=Helvetica;fontSize=12;fontColor=default;" edge="1" parent="1" source="URdUNzW6-drFFt7LhVcL-2" target="URdUNzW6-drFFt7LhVcL-7">
          <mxGeometry relative="1" as="geometry" />
        </mxCell>
        <mxCell id="URdUNzW6-drFFt7LhVcL-15" value="Activate/Deactivate User" style="text;html=1;strokeColor=none;fillColor=none;align=center;verticalAlign=middle;whiteSpace=wrap;rounded=0;fontSize=19;" vertex="1" parent="1">
          <mxGeometry x="460" y="80" width="180" height="30" as="geometry" />
        </mxCell>
        <mxCell id="URdUNzW6-drFFt7LhVcL-6" style="edgeStyle=orthogonalEdgeStyle;rounded=0;orthogonalLoop=1;jettySize=auto;html=1;dashed=1;entryX=0;entryY=0.5;entryDx=0;entryDy=0;" edge="1" parent="1" source="URdUNzW6-drFFt7LhVcL-7" target="URdUNzW6-drFFt7LhVcL-18">
          <mxGeometry relative="1" as="geometry" />
        </mxCell>
        <mxCell id="URdUNzW6-drFFt7LhVcL-21" style="edgeStyle=orthogonalEdgeStyle;rounded=0;orthogonalLoop=1;jettySize=auto;html=1;dashed=1;" edge="1" parent="1" source="URdUNzW6-drFFt7LhVcL-18" target="URdUNzW6-drFFt7LhVcL-11">
          <mxGeometry relative="1" as="geometry">
            <Array as="points">
              <mxPoint x="350" y="400" />
              <mxPoint x="520" y="400" />
            </Array>
          </mxGeometry>
        </mxCell>
        <mxCell id="URdUNzW6-drFFt7LhVcL-22" style="edgeStyle=orthogonalEdgeStyle;rounded=0;orthogonalLoop=1;jettySize=auto;html=1;entryX=0.5;entryY=1;entryDx=0;entryDy=0;dashed=1;" edge="1" parent="1" source="URdUNzW6-drFFt7LhVcL-11" target="URdUNzW6-drFFt7LhVcL-5">
          <mxGeometry relative="1" as="geometry" />
        </mxCell>
      </root>
    </mxGraphModel>
  </diagram>
</mxfile>

